{
  "accessors": [
    {
      "bufferView": 2,
      "componentType": 5126,
      "count": 24,
      "max": [
        1.0,
        2.0,
        1.0
      ],
      "min": [
        -1.0,
        0.0,
        -0.576971173286438
      ],
      "type": "VEC3"
    },
    {
      "bufferView": 2,
      "byteOffset": 288,
      "componentType": 5126,
      "count": 24,
      "max": [
        1.0,
        1.0,
        1.0
      ],
      "min": [
        -1.0,
        -1.0,
        -1.0
      ],
      "type": "VEC3"
    },
    {
      "bufferView": 1,
      "componentType": 5126,
      "count": 24,
      "max": [
        0.875,
        1.0
      ],
      "min": [
        0.125,
        0.0
      ],
      "type": "VEC2"
    },
    {
      "bufferView": 0,
      "componentType": 5125,
      "count": 36,
      "type": "SCALAR"
    },
    {
      "bufferView": 2,
      "byteOffset": 576,
      "componentType": 5126,
      "count": 28064,
      "max": [
        1.4511226415634155,
        5.221157073974609,
        1.6704576015472412
      ],
      "min": [
        -1.318337082862854,
        -0.0978308618068695,
        -1.669118046760559
      ],
      "type": "VEC3"
    },
    {
      "bufferView": 2,
      "byteOffset": 337344,
      "componentType": 5126,
      "count": 28064,
      "max": [
        0.9999995231628418,
        0.9980269074440002,
        0.9999997615814209
      ],
      "min": [
        -0.9999997615814209,
        -1.0,
        -0.9999972581863403
      ],
      "type": "VEC3"
    },
    {
      "bufferView": 1,
      "byteOffset": 192,
      "componentType": 5126,
      "count": 28064,
      "max": [
        0.9475581645965576,
        0.9777095317840576
      ],
      "min": [
        0.09571726620197296,
        0.26050761342048645
      ],
      "type": "VEC2"
    },
    {
      "bufferView": 0,
      "byteOffset": 144,
      "componentType": 5125,
      "count": 158655,
      "type": "SCALAR"
    },
    {
      "bufferView": 2,
      "byteOffset": 674112,
      "componentType": 5126,
      "count": 126,
      "max": [
        1.187024712562561,
        2.5431618690490723,
        1.6400939226150513
      ],
      "min": [
        -1.1846942901611328,
        0.2573295831680298,
        -1.6515653133392334
      ],
      "type": "VEC3"
    },
    {
      "bufferView": 2,
      "byteOffset": 675624,
      "componentType": 5126,
      "count": 126,
      "max": [
        0.9908583760261536,
        0.02411014772951603,
        1.0
      ],
      "min": [
        -0.990789532661438,
        -0.028169376775622368,
        -1.0
      ],
      "type": "VEC3"
    },
    {
      "bufferView": 1,
      "byteOffset": 224704,
      "componentType": 5126,
      "count": 126,
      "max": [
        0.20653179287910461,
        1.0
      ],
      "min": [
        0.0,
        0.0
      ],
      "type": "VEC2"
    },
    {
      "bufferView": 0,
      "byteOffset": 634764,
      "componentType": 5125,
      "count": 360,
      "type": "SCALAR"
    },
    {
      "bufferView": 2,
      "byteOffset": 677136,
      "componentType": 5126,
      "count": 28064,
      "max": [
        1.4511226415634155,
        4.449392318725586,
        1.6704576015472412
      ],
      "min": [
        -1.318337082862854,
        -3.3306026458740234,
        -1.669118046760559
      ],
      "type": "VEC3"
    },
    {
      "bufferView": 2,
      "byteOffset": 1013904,
      "componentType": 5126,
      "count": 28064,
      "max": [
        0.9999997615814209,
        0.9980269074440002,
        0.9999997615814209
      ],
      "min": [
        -0.9999997615814209,
        -1.0,
        -0.9999972581863403
      ],
      "type": "VEC3"
    },
    {
      "bufferView": 1,
      "byteOffset": 225712,
      "componentType": 5126,
      "count": 28064,
      "max": [
        0.9512145519256592,
        0.9802937507629395
      ],
      "min": [
        0.1005854606628418,
        -0.007703591603785753
      ],
      "type": "VEC2"
    },
    {
      "bufferView": 0,
      "byteOffset": 636204,
      "componentType": 5125,
      "count": 158655,
      "type": "SCALAR"
    },
    {
      "bufferView": 2,
      "byteOffset": 1350672,
      "componentType": 5126,
      "count": 126,
      "max": [
        1.187024712562561,
        0.22947043180465698,
        1.6400939226150513
      ],
      "min": [
        -1.1846942901611328,
        -1.9714707136154175,
        -1.6515653133392334
      ],
      "type": "VEC3"
    },
    {
      "bufferView": 2,
      "byteOffset": 1352184,
      "componentType": 5126,
      "count": 126,
      "max": [
        0.9908583760261536,
        0.02652120031416416,
        1.0
      ],
      "min": [
        -0.9908385872840881,
        -0.028169376775622368,
        -1.0
      ],
      "type": "VEC3"
    },
    {
      "bufferView": 1,
      "byteOffset": 450224,
      "componentType": 5126,
      "count": 126,
      "max": [
        0.20653179287910461,
        1.0
      ],
      "min": [
        0.0,
        0.0
      ],
      "type": "VEC2"
    },
    {
      "bufferView": 0,
      "byteOffset": 1270824,
      "componentType": 5125,
      "count": 360,
      "type": "SCALAR"
    },
    {
      "bufferView": 2,
      "byteOffset": 1353696,
      "componentType": 5126,
      "count": 28063,
      "max": [
        1.4511226415634155,
        5.897305488586426,
        1.6704576015472412
      ],
      "min": [
        -1.318337082862854,
        -0.0978308618068695,
        -1.669118046760559
      ],
      "type": "VEC3"
    },
    {
      "bufferView": 2,
      "byteOffset": 1690452,
      "componentType": 5126,
      "count": 28063,
      "max": [
        0.9999997615814209,
        0.9980269074440002,
        0.9999997615814209
      ],
      "min": [
        -0.9999997615814209,
        -1.0,
        -0.9999972581863403
      ],
      "type": "VEC3"
    },
    {
      "bufferView": 1,
      "byteOffset": 451232,
      "componentType": 5126,
      "count": 28063,
      "max": [
        0.9113873839378357,
        0.9735397100448608
      ],
      "min": [
        0.1006539911031723,
        0.2073945552110672
      ],
      "type": "VEC2"
    },
    {
      "bufferView": 0,
      "byteOffset": 1272264,
      "componentType": 5125,
      "count": 158655,
      "type": "SCALAR"
    },
    {
      "bufferView": 2,
      "byteOffset": 2027208,
      "componentType": 5126,
      "count": 126,
      "max": [
        1.187024712562561,
        2.5431618690490723,
        1.6400939226150513
      ],
      "min": [
        -1.1846942901611328,
        0.2573295831680298,
        -1.6515653133392334
      ],
      "type": "VEC3"
    },
    {
      "bufferView": 2,
      "byteOffset": 2028720,
      "componentType": 5126,
      "count": 126,
      "max": [
        0.9908583760261536,
        0.02411014772951603,
        1.0
      ],
      "min": [
        -0.990789532661438,
        -0.028169376775622368,
        -1.0
      ],
      "type": "VEC3"
    },
    {
      "bufferView": 1,
      "byteOffset": 675736,
      "componentType": 5126,
      "count": 126,
      "max": [
        0.20653179287910461,
        1.0
      ],
      "min": [
        0.0,
        0.0
      ],
      "type": "VEC2"
    },
    {
      "bufferView": 0,
      "byteOffset": 1906884,
      "componentType": 5125,
      "count": 360,
      "type": "SCALAR"
    },
    {
      "bufferView": 2,
      "byteOffset": 2030232,
      "componentType": 5126,
      "count": 31536,
      "max": [
        1106.4134521484375,
        782.458984375,
        751.6141357421875
      ],
      "min": [
        -779.7288208007813,
        -992.978759765625,
        -451.68780517578125
      ],
      "type": "VEC3"
    },
    {
      "bufferView": 2,
      "byteOffset": 2408664,
      "componentType": 5126,
      "count": 31536,
      "max": [
        0.9998871088027954,
        0.9999527931213379,
        0.9999912977218628
      ],
      "min": [
        -0.9999991655349731,
        -0.9998610019683838,
        -0.9999563694000244
      ],
      "type": "VEC3"
    },
    {
      "bufferView": 1,
      "byteOffset": 676744,
      "componentType": 5126,
      "count": 31536,
      "max": [
        0.9903380274772644,
        0.9832850098609924
      ],
      "min": [
        0.008705000393092632,
        0.03132599964737892
      ],
      "type": "VEC2"
    },
    {
      "bufferView": 0,
      "byteOffset": 1908324,
      "componentType": 5125,
      "count": 176640,
      "type": "SCALAR"
    },
    {
      "bufferView": 2,
      "byteOffset": 2787096,
      "componentType": 5126,
      "count": 817,
      "max": [
        1.2726188898086548,
        2.917412757873535,
        1.2788554430007935
      ],
      "min": [
        -1.2726190090179443,
        0.059315841645002365,
        -1.2663822174072266
      ],
      "type": "VEC3"
    },
    {
      "bufferView": 2,
      "byteOffset": 2796900,
      "componentType": 5126,
      "count": 817,
      "max": [
        0.9961621761322021,
        -0.08752721548080444,
        0.9961621761322021
      ],
      "min": [
        -0.9961621761322021,
        -0.9999711513519287,
        -0.9961621761322021
      ],
      "type": "VEC3"
    },
    {
      "bufferView": 1,
      "byteOffset": 929032,
      "componentType": 5126,
      "count": 817,
      "max": [
        1.2125029563903809,
        1.1196626424789429
      ],
      "min": [
        -0.3477024734020233,
        -0.2888690233230591
      ],
      "type": "VEC2"
    },
    {
      "bufferView": 0,
      "byteOffset": 2614884,
      "componentType": 5125,
      "count": 3456,
      "type": "SCALAR"
    },
    {
      "bufferView": 2,
      "byteOffset": 2806704,
      "componentType": 5126,
      "count": 1665,
      "max": [
        1.2955650091171265,
        2.970386028289795,
        1.3030489683151245
      ],
      "min": [
        -1.295564889907837,
        0.06125851348042488,
        -1.2880810499191284
      ],
      "type": "VEC3"
    },
    {
      "bufferView": 2,
      "byteOffset": 2826684,
      "componentType": 5126,
      "count": 1665,
      "max": [
        0.9996906518936157,
        1.0,
        0.9996906518936157
      ],
      "min": [
        -0.9996906518936157,
        -1.0,
        -0.9996906518936157
      ],
      "type": "VEC3"
    },
    {
      "bufferView": 1,
      "byteOffset": 935568,
      "componentType": 5126,
      "count": 1665,
      "max": [
        1.3477023839950562,
        1.1175036430358887
      ],
      "min": [
        -0.3477024734020233,
        -0.2888690233230591
      ],
      "type": "VEC2"
    },
    {
      "bufferView": 0,
      "byteOffset": 2628708,
      "componentType": 5125,
      "count": 7296,
      "type": "SCALAR"
    },
    {
      "bufferView": 2,
      "byteOffset": 2846664,
      "componentType": 5126,
      "count": 51246,
      "max": [
        0.7321988344192505,
        0.05356486514210701,
        1.349216341972351
      ],
      "min": [
        -0.8916964530944824,
        -0.04944638907909393,
        -1.3752667903900146
      ],
      "type": "VEC3"
    },
    {
      "bufferView": 2,
      "byteOffset": 3461616,
      "componentType": 5126,
      "count": 51246,
      "max": [
        0.999966025352478,
        0.9999344348907471,
        0.9999083280563354
      ],
      "min": [
        -0.999991774559021,
        -0.9998979568481445,
        -0.9999656677246094
      ],
      "type": "VEC3"
    },
    {
      "bufferView": 1,
      "byteOffset": 948888,
      "componentType": 5126,
      "count": 51246,
      "max": [
        0.9903380274772644,
        0.9832850098609924
      ],
      "min": [
        0.008705000393092632,
        0.03132599964737892
      ],
      "type": "VEC2"
    },
    {
      "bufferView": 0,
      "byteOffset": 2657892,
      "componentType": 5125,
      "count": 287040,
      "type": "SCALAR"
    }
  ],
  "asset": {
    "extras": {
      "author": "hectopod (https://sketchfab.com/hectopod)",
      "license": "CC-BY-4.0 (http://creativecommons.org/licenses/by/4.0/)",
      "source": "https://sketchfab.com/3d-models/coffee-bag-20de10e33c8a406fb6c232c9711b6849",
      "title": "coffee bag"
    },
    "generator": "Sketchfab-11.53.2",
    "version": "2.0"
  },
  "bufferViews": [
    {
      "buffer": 0,
      "byteLength": 3806052,
      "name": "floatBufferViews",
      "target": 34963
    },
    {
      "buffer": 0,
      "byteLength": 1358856,
      "byteOffset": 3806052,
      "byteStride": 8,
      "name": "floatBufferViews",
      "target": 34962
    },
    {
      "buffer": 0,
      "byteLength": 4076568,
      "byteOffset": 5164908,
      "byteStride": 12,
      "name": "floatBufferViews",
      "target": 34962
    }
  ],
  "buffers": [
    {
      "byteLength": 9241476,
      "uri": "scene.bin"
    }
  ],
  "images": [
    {
      "uri": "textures/craftPaper_baseColor.png"
    }
  ],
  "materials": [
    {
      "doubleSided": true,
      "name": "color",
      "pbrMetallicRoughness": {
        "baseColorFactor": [
          0.8181175118763933,
          0.8181175118763933,
          0.8181175118763933,
          1.0
        ],
        "metallicFactor": 0.0
      }
    },
    {
      "doubleSided": true,
      "name": "craftPaper",
      "pbrMetallicRoughness": {
        "baseColorTexture": {
          "index": 0
        },
        "metallicFactor": 0.0,
        "roughnessFactor": 0.6042785134207053
      }
    }
  ],
  "meshes": [
    {
      "name": "Object_0",
      "primitives": [
        {
          "attributes": {
            "NORMAL": 1,
            "POSITION": 0,
            "TEXCOORD_0": 2
          },
          "indices": 3,
          "material": 0,
          "mode": 4
        }
      ]
    },
    {
      "name": "Object_1",
      "primitives": [
        {
          "attributes": {
            "NORMAL": 5,
            "POSITION": 4,
            "TEXCOORD_0": 6
          },
          "indices": 7,
          "material": 1,
          "mode": 4
        }
      ]
    },
    {
      "name": "Object_2",
      "primitives": [
        {
          "attributes": {
            "NORMAL": 9,
            "POSITION": 8,
            "TEXCOORD_0": 10
          },
          "indices": 11,
          "material": 0,
          "mode": 4
        }
      ]
    },
    {
      "name": "Object_3",
      "primitives": [
        {
          "attributes": {
            "NORMAL": 13,
            "POSITION": 12,
            "TEXCOORD_0": 14
          },
          "indices": 15,
          "material": 1,
          "mode": 4
        }
      ]
    },
    {
      "name": "Object_4",
      "primitives": [
        {
          "attributes": {
            "NORMAL": 17,
            "POSITION": 16,
            "TEXCOORD_0": 18
          },
          "indices": 19,
          "material": 0,
          "mode": 4
        }
      ]
    },
    {
      "name": "Object_5",
      "primitives": [
        {
          "attributes": {
            "NORMAL": 21,
            "POSITION": 20,
            "TEXCOORD_0": 22
          },
          "indices": 23,
          "material": 1,
          "mode": 4
        }
      ]
    },
    {
      "name": "Object_6",
      "primitives": [
        {
          "attributes": {
            "NORMAL": 25,
            "POSITION": 24,
            "TEXCOORD_0": 26
          },
          "indices": 27,
          "material": 0,
          "mode": 4
        }
      ]
    },
    {
      "name": "Object_7",
      "primitives": [
        {
          "attributes": {
            "NORMAL": 29,
            "POSITION": 28,
            "TEXCOORD_0": 30
          },
          "indices": 31,
          "material": 0,
          "mode": 4
        }
      ]
    },
    {
      "name": "Object_8",
      "primitives": [
        {
          "attributes": {
            "NORMAL": 33,
            "POSITION": 32,
            "TEXCOORD_0": 34
          },
          "indices": 35,
          "material": 0,
          "mode": 4
        }
      ]
    },
    {
      "name": "Object_9",
      "primitives": [
        {
          "attributes": {
            "NORMAL": 37,
            "POSITION": 36,
            "TEXCOORD_0": 38
          },
          "indices": 39,
          "material": 1,
          "mode": 4
        }
      ]
    },
    {
      "name": "Object_10",
      "primitives": [
        {
          "attributes": {
            "NORMAL": 41,
            "POSITION": 40,
            "TEXCOORD_0": 42
          },
          "indices": 43,
          "material": 0,
          "mode": 4
        }
      ]
    }
  ],
  "nodes": [
    {
      "children": [
        1
      ],
      "matrix": [
        1.0,
        0.0,
        0.0,
        0.0,
        0.0,
        2.220446049250313e-16,
        -1.0,
        0.0,
        0.0,
        1.0,
        2.220446049250313e-16,
        0.0,
        0.0,
        0.0,
        0.0,
        1.0
      ],
      "name": "Sketchfab_model"
    },
    {
      "children": [
        2
      ],
      "name": "root"
    },
    {
      "children": [
        3,
        5,
        7,
        9,
        11,
        13,
        15,
        17,
        19,
        22
      ],
      "matrix": [
        1.0,
        0.0,
        0.0,
        0.0,
        0.0,
        2.220446049250313e-16,
        1.0,
        0.0,
        0.0,
        -1.0,
        2.220446049250313e-16,
        0.0,
        0.0,
        0.0,
        0.0,
        1.0
      ],
      "name": "GLTF_SceneRootNode"
    },
    {
      "children": [
        4
      ],
      "matrix": [
        1.2326213121414185,
        0.0,
        0.0,
        0.0,
        0.0,
        1.3030441999435425,
        0.0,
        0.0,
        0.0,
        0.0,
        1.8985779285430908,
        0.0,
        -1.5798134803771973,
        0.0,
        0.8359509706497192,
        1.0
      ],
      "name": "Cube.002_0"
    },
    {
      "mesh": 0,
      "name": "Object_4"
    },
    {
      "children": [
        6
      ],
      "matrix": [
        -0.5207597223907292,
        0.0,
        0.13199244705578944,
        0.0,
        -0.0,
        0.6045399308204651,
        0.0,
        0.0,
        -0.1411600587369203,
        0.0,
        -0.5569293898265776,
        0.0,
        -1.5577588081359863,
        2.6508960723876953,
        1.2624685764312744,
        1.0
      ],
      "name": "label.005_1"
    },
    {
      "mesh": 1,
      "name": "Object_6"
    },
    {
      "children": [
        8
      ],
      "matrix": [
        -0.5207597223907292,
        0.0,
        0.13199244705578944,
        0.0,
        -0.0,
        0.6045399308204651,
        0.0,
        0.0,
        -0.1411600587369203,
        0.0,
        -0.5569293898265776,
        0.0,
        -1.5577588081359863,
        2.6508960723876953,
        1.2624685764312744,
        1.0
      ],
      "name": "label.006_2"
    },
    {
      "mesh": 2,
      "name": "Object_8"
    },
    {
      "children": [
        10
      ],
      "matrix": [
        -0.5170869730728979,
        0.0,
        -0.14571807308138898,
        0.0,
        0.0,
        0.6045399308204651,
        -0.0,
        0.0,
        0.15583900604938059,
        0.0,
        -0.5530015475826049,
        0.0,
        -1.2793323993682861,
        2.0574278831481934,
        -2.1429009437561035,
        1.0
      ],
      "name": "label.002_3"
    },
    {
      "mesh": 3,
      "name": "Object_10"
    },
    {
      "children": [
        12
      ],
      "matrix": [
        -0.5170869730728979,
        0.0,
        -0.14571807308138898,
        0.0,
        0.0,
        0.6045399308204651,
        -0.0,
        0.0,
        0.15583900604938059,
        0.0,
        -0.5530015475826049,
        0.0,
        -1.2793323993682861,
        2.0574278831481934,
        -2.1429009437561035,
        1.0
      ],
      "name": "label.003_4"
    },
    {
      "mesh": 4,
      "name": "Object_12"
    },
    {
      "children": [
        14
      ],
      "matrix": [
        0.5311771837383421,
        0.0,
        -0.08039585822695404,
        0.0,
        0.0,
        0.6045399308204651,
        0.0,
        0.0,
        0.08597979901626633,
        0.0,
        0.5680704019717427,
        0.0,
        1.722021222114563,
        0.06422920525074005,
        0.2808365821838379,
        1.0
      ],
      "name": "label.004_5"
    },
    {
      "mesh": 5,
      "name": "Object_14"
    },
    {
      "children": [
        16
      ],
      "matrix": [
        0.5311771837383421,
        0.0,
        -0.08039585822695404,
        0.0,
        0.0,
        0.6045399308204651,
        0.0,
        0.0,
        0.08597979901626633,
        0.0,
        0.5680704019717427,
        0.0,
        1.722021222114563,
        0.06422920525074005,
        0.2808365821838379,
        1.0
      ],
      "name": "label.007_6"
    },
    {
      "mesh": 6,
      "name": "Object_16"
    },
    {
      "children": [
        18
      ],
      "matrix": [
        -9.039090521222233e-05,
        -0.0008118407313387787,
        0.0037161935935700347,
        0.0,
        -0.00365492159695604,
        0.001048456763159308,
        0.0001401456142255121,
        0.0,
        -0.0010539125142932943,
        -0.00356637126859868,
        -0.0008047453637185918,
        0.0,
        0.4571336507797241,
        5.078558444976807,
        -0.1598219871520996,
        1.0
      ],
      "name": "bean.001_7"
    },
    {
      "mesh": 7,
      "name": "Object_18"
    },
    {
      "children": [
        20,
        21
      ],
      "matrix": [
        0.500187337398529,
        0.0,
        0.0,
        0.0,
        0.0,
        0.500187337398529,
        0.0,
        0.0,
        0.0,
        0.0,
        0.500187337398529,
        0.0,
        1.1266980171203613,
        0.014356791973114014,
        2.148101806640625,
        1.0
      ],
      "name": "Cylinder_8"
    },
    {
      "mesh": 8,
      "name": "Object_20"
    },
    {
      "mesh": 9,
      "name": "Object_21"
    },
    {
      "children": [
        23
      ],
      "matrix": [
        -0.9574814964453662,
        0.0,
        1.0955412360083085,
        0.0,
        0.0,
        1.4549850225448608,
        0.0,
        0.0,
        -1.0955412360083085,
        0.0,
        -0.9574814964453662,
        0.0,
        0.5548877716064453,
        0.06927215307950974,
        -2.394624948501587,
        1.0
      ],
      "name": "bean.009_9"
    },
    {
      "mesh": 10,
      "name": "Object_23"
    }
  ],
  "samplers": [
    {
      "magFilter": 9729,
      "minFilter": 9987,
      "wrapS": 10497,
      "wrapT": 10497
    }
  ],
  "scene": 0,
  "scenes": [
    {
      "name": "Sketchfab_Scene",
      "nodes": [
        0
      ]
    }
  ],
  "textures": [
    {
      "sampler": 0,
      "source": 0
    }
  ]
}
